<?xml version="1.0" encoding="UTF-8" standalone="no"?>
<!DOCTYPE svg PUBLIC "-//W3C//DTD SVG 1.1//EN"
 "http://www.w3.org/Graphics/SVG/1.1/DTD/svg11.dtd">
<!-- Generated by graphviz version 2.38.0 (20140413.2041)
 -->
<!-- Title: git_merge_fast_fwd Pages: 1 -->
<svg width="457pt" height="170pt"
 viewBox="0.00 0.00 457.00 169.87" xmlns="http://www.w3.org/2000/svg" xmlns:xlink="http://www.w3.org/1999/xlink">
<g id="graph0" class="graph" transform="scale(1 1) rotate(0) translate(4 165.87)">
<title>git_merge_fast_fwd</title>
<!-- master -->
<g id="node1" class="node"><title>master</title>
<polygon fill="none" stroke="orange" points="71.5,-161.87 15.5,-161.87 15.5,-125.87 71.5,-125.87 71.5,-161.87"/>
<text text-anchor="middle" x="43.5" y="-140.37" font-family="Times New Roman,serif" font-size="15.00">master</text>
</g>
<!-- c_0_hash -->
<g id="node5" class="node"><title>c_0_hash</title>
<polygon fill="none" stroke="orange" points="87,-107.87 0,-107.87 0,-71.8701 87,-71.8701 87,-107.87"/>
<text text-anchor="middle" x="43.5" y="-86.3701" font-family="Times New Roman,serif" font-size="15.00">9e288d60...</text>
</g>
<!-- master&#45;&gt;c_0_hash -->
<g id="edge10" class="edge"><title>master&#45;&gt;c_0_hash</title>
<path fill="none" stroke="black" d="M43.5,-125.66C43.5,-123.178 43.5,-120.696 43.5,-118.214"/>
<polygon fill="black" stroke="black" points="47.0001,-118.011 43.5,-108.011 40.0001,-118.011 47.0001,-118.011"/>
</g>
<!-- hotfix -->
<g id="node2" class="node"><title>hotfix</title>
<polygon fill="none" stroke="orange" points="311,-161.87 261,-161.87 261,-125.87 311,-125.87 311,-161.87"/>
<text text-anchor="middle" x="286" y="-140.37" font-family="Times New Roman,serif" font-size="15.00">hotfix</text>
</g>
<!-- c_2_hash -->
<g id="node7" class="node"><title>c_2_hash</title>
<polygon fill="none" stroke="orange" points="328,-107.87 244,-107.87 244,-71.8701 328,-71.8701 328,-107.87"/>
<text text-anchor="middle" x="286" y="-86.3701" font-family="Times New Roman,serif" font-size="15.00">d813d7fa...</text>
</g>
<!-- hotfix&#45;&gt;c_2_hash -->
<g id="edge6" class="edge"><title>hotfix&#45;&gt;c_2_hash</title>
<path fill="none" stroke="black" d="M286,-125.66C286,-123.178 286,-120.696 286,-118.214"/>
<polygon fill="black" stroke="black" points="289.5,-118.011 286,-108.011 282.5,-118.011 289.5,-118.011"/>
</g>
<!-- feature -->
<g id="node3" class="node"><title>feature</title>
<polygon fill="none" stroke="orange" points="194,-161.87 137,-161.87 137,-125.87 194,-125.87 194,-161.87"/>
<text text-anchor="middle" x="165.5" y="-140.37" font-family="Times New Roman,serif" font-size="15.00">feature</text>
</g>
<!-- c_1_hash -->
<g id="node6" class="node"><title>c_1_hash</title>
<polygon fill="none" stroke="orange" points="208,-107.87 123,-107.87 123,-71.8701 208,-71.8701 208,-107.87"/>
<text text-anchor="middle" x="165.5" y="-86.3701" font-family="Times New Roman,serif" font-size="15.00">1f657438...</text>
</g>
<!-- feature&#45;&gt;c_1_hash -->
<g id="edge8" class="edge"><title>feature&#45;&gt;c_1_hash</title>
<path fill="none" stroke="black" d="M165.5,-125.66C165.5,-123.178 165.5,-120.696 165.5,-118.214"/>
<polygon fill="black" stroke="black" points="169,-118.011 165.5,-108.011 162,-118.011 169,-118.011"/>
</g>
<!-- release_1 -->
<g id="node4" class="node"><title>release_1</title>
<polygon fill="none" stroke="orange" stroke-dasharray="5,2" points="428,-161.87 385,-161.87 385,-125.87 428,-125.87 428,-161.87"/>
<text text-anchor="middle" x="406.5" y="-140.37" font-family="Times New Roman,serif" font-size="15.00">v1.0</text>
</g>
<!-- c_3_hash -->
<g id="node8" class="node"><title>c_3_hash</title>
<polygon fill="none" stroke="orange" points="449,-107.87 364,-107.87 364,-71.8701 449,-71.8701 449,-107.87"/>
<text text-anchor="middle" x="406.5" y="-86.3701" font-family="Times New Roman,serif" font-size="15.00">7f70601d...</text>
</g>
<!-- release_1&#45;&gt;c_3_hash -->
<g id="edge4" class="edge"><title>release_1&#45;&gt;c_3_hash</title>
<path fill="none" stroke="black" d="M406.5,-125.66C406.5,-123.178 406.5,-120.696 406.5,-118.214"/>
<polygon fill="black" stroke="black" points="410,-118.011 406.5,-108.011 403,-118.011 410,-118.011"/>
</g>
<!-- c_0 -->
<g id="node9" class="node"><title>c_0</title>
<ellipse fill="none" stroke="black" cx="43.5" cy="-26.8701" rx="26.7407" ry="26.7407"/>
<text text-anchor="middle" x="43.5" y="-23.3701" font-family="Times New Roman,serif" font-size="15.00">C 0</text>
</g>
<!-- c_0_hash&#45;&gt;c_0 -->
<g id="edge11" class="edge"><title>c_0_hash&#45;&gt;c_0</title>
<path fill="none" stroke="black" d="M43.5,-71.6245C43.5,-69.1377 43.5,-66.6508 43.5,-64.164"/>
<polygon fill="black" stroke="black" points="47.0001,-63.9403 43.5,-53.9404 40.0001,-63.9404 47.0001,-63.9403"/>
</g>
<!-- c_1 -->
<g id="node10" class="node"><title>c_1</title>
<ellipse fill="none" stroke="black" cx="165.5" cy="-26.8701" rx="26.7407" ry="26.7407"/>
<text text-anchor="middle" x="165.5" y="-23.3701" font-family="Times New Roman,serif" font-size="15.00">C 1</text>
</g>
<!-- c_1_hash&#45;&gt;c_1 -->
<g id="edge9" class="edge"><title>c_1_hash&#45;&gt;c_1</title>
<path fill="none" stroke="black" d="M165.5,-71.6245C165.5,-69.1377 165.5,-66.6508 165.5,-64.164"/>
<polygon fill="black" stroke="black" points="169,-63.9403 165.5,-53.9404 162,-63.9404 169,-63.9403"/>
</g>
<!-- c_2 -->
<g id="node11" class="node"><title>c_2</title>
<ellipse fill="none" stroke="black" cx="286" cy="-26.8701" rx="26.7407" ry="26.7407"/>
<text text-anchor="middle" x="286" y="-23.3701" font-family="Times New Roman,serif" font-size="15.00">C 2</text>
</g>
<!-- c_2_hash&#45;&gt;c_2 -->
<g id="edge7" class="edge"><title>c_2_hash&#45;&gt;c_2</title>
<path fill="none" stroke="black" d="M286,-71.6245C286,-69.1377 286,-66.6508 286,-64.164"/>
<polygon fill="black" stroke="black" points="289.5,-63.9403 286,-53.9404 282.5,-63.9404 289.5,-63.9403"/>
</g>
<!-- c_3 -->
<g id="node12" class="node"><title>c_3</title>
<ellipse fill="none" stroke="black" cx="406.5" cy="-26.8701" rx="26.7407" ry="26.7407"/>
<text text-anchor="middle" x="406.5" y="-23.3701" font-family="Times New Roman,serif" font-size="15.00">C 3</text>
</g>
<!-- c_3_hash&#45;&gt;c_3 -->
<g id="edge5" class="edge"><title>c_3_hash&#45;&gt;c_3</title>
<path fill="none" stroke="black" d="M406.5,-71.6245C406.5,-69.1377 406.5,-66.6508 406.5,-64.164"/>
<polygon fill="black" stroke="black" points="410,-63.9403 406.5,-53.9404 403,-63.9404 410,-63.9403"/>
</g>
<!-- c_0&#45;&gt;c_1 -->
<g id="edge1" class="edge"><title>c_0&#45;&gt;c_1</title>
<path fill="none" stroke="black" d="M80.7316,-26.8701C99.3535,-26.8701 121.619,-26.8701 138.513,-26.8701"/>
<polygon fill="black" stroke="black" points="80.5382,-23.3702 70.5382,-26.8701 80.5382,-30.3702 80.5382,-23.3702"/>
</g>
<!-- c_1&#45;&gt;c_2 -->
<g id="edge2" class="edge"><title>c_1&#45;&gt;c_2</title>
<path fill="none" stroke="black" d="M202.754,-26.8701C220.942,-26.8701 242.552,-26.8701 259.055,-26.8701"/>
<polygon fill="black" stroke="black" points="202.505,-23.3702 192.505,-26.8701 202.505,-30.3702 202.505,-23.3702"/>
</g>
<!-- c_2&#45;&gt;c_3 -->
<g id="edge3" class="edge"><title>c_2&#45;&gt;c_3</title>
<path fill="none" stroke="black" d="M323.254,-26.8701C341.442,-26.8701 363.052,-26.8701 379.555,-26.8701"/>
<polygon fill="black" stroke="black" points="323.005,-23.3702 313.005,-26.8701 323.005,-30.3702 323.005,-23.3702"/>
</g>
</g>
</svg>
