<?xml version="1.0" encoding="UTF-8" standalone="no"?>
<!DOCTYPE svg PUBLIC "-//W3C//DTD SVG 1.1//EN"
 "http://www.w3.org/Graphics/SVG/1.1/DTD/svg11.dtd">
<!-- Generated by graphviz version 2.38.0 (20140413.2041)
 -->
<!-- Title: git_branch_model Pages: 1 -->
<svg width="959pt" height="185pt"
 viewBox="0.00 0.00 958.68 184.81" xmlns="http://www.w3.org/2000/svg" xmlns:xlink="http://www.w3.org/1999/xlink">
<g id="graph0" class="graph" transform="scale(1 1) rotate(0) translate(4 180.811)">
<title>git_branch_model</title>
<!-- master -->
<g id="node1" class="node"><title>master</title>
<polygon fill="none" stroke="orange" stroke-width="2" points="56,-168.406 53,-172.406 32,-172.406 29,-168.406 3.55271e-015,-168.406 3.55271e-015,-132.406 56,-132.406 56,-168.406"/>
<text text-anchor="middle" x="28" y="-146.906" font-family="Times New Roman,serif" font-size="15.00">master</text>
</g>
<!-- C_1 -->
<g id="node5" class="node"><title>C_1</title>
<ellipse fill="none" stroke="black" cx="119" cy="-150.406" rx="26.3114" ry="26.3114"/>
<text text-anchor="middle" x="119" y="-146.906" font-family="Times New Roman,serif" font-size="15.00">C 1</text>
</g>
<!-- master&#45;&gt;C_1 -->
<g id="edge1" class="edge"><title>master&#45;&gt;C_1</title>
<path fill="none" stroke="green" d="M56.1865,-150.406C64.4,-150.406 73.5458,-150.406 82.2299,-150.406"/>
<polygon fill="green" stroke="green" points="82.4999,-153.906 92.4999,-150.406 82.4999,-146.906 82.4999,-153.906"/>
</g>
<!-- dev -->
<g id="node2" class="node"><title>dev</title>
<polygon fill="none" stroke="orange" stroke-width="2" points="146,-44.4055 143,-48.4055 122,-48.4055 119,-44.4055 92,-44.4055 92,-8.40553 146,-8.40553 146,-44.4055"/>
<text text-anchor="middle" x="119" y="-22.9055" font-family="Times New Roman,serif" font-size="15.00">dev</text>
</g>
<!-- C_1_D -->
<g id="node11" class="node"><title>C_1_D</title>
<ellipse fill="none" stroke="blue" stroke-width="2" cx="208.406" cy="-26.4055" rx="26.3114" ry="26.3114"/>
<text text-anchor="middle" x="208.406" y="-22.9055" font-family="Times New Roman,serif" font-size="15.00">C 1</text>
</g>
<!-- dev&#45;&gt;C_1_D -->
<g id="edge5" class="edge"><title>dev&#45;&gt;C_1_D</title>
<path fill="none" stroke="gray" stroke-dasharray="5,2" d="M146.225,-26.4055C157.488,-26.4055 170.607,-26.4055 181.801,-26.4055"/>
</g>
<!-- hotfix -->
<g id="node3" class="node"><title>hotfix</title>
<polygon fill="none" stroke="orange" stroke-width="2" points="413.622,-106.406 410.622,-110.406 389.622,-110.406 386.622,-106.406 359.622,-106.406 359.622,-70.4055 413.622,-70.4055 413.622,-106.406"/>
<text text-anchor="middle" x="386.622" y="-84.9055" font-family="Times New Roman,serif" font-size="15.00">hotfix</text>
</g>
<!-- C_2_H -->
<g id="node13" class="node"><title>C_2_H</title>
<ellipse fill="none" stroke="blue" stroke-width="2" cx="476.028" cy="-88.4055" rx="26.3114" ry="26.3114"/>
<text text-anchor="middle" x="476.028" y="-84.9055" font-family="Times New Roman,serif" font-size="15.00">C 2</text>
</g>
<!-- hotfix&#45;&gt;C_2_H -->
<g id="edge9" class="edge"><title>hotfix&#45;&gt;C_2_H</title>
<path fill="none" stroke="gray" stroke-dasharray="5,2" d="M413.847,-88.4055C425.11,-88.4055 438.229,-88.4055 449.423,-88.4055"/>
</g>
<!-- feature -->
<g id="node4" class="node"><title>feature</title>
<polygon fill="none" stroke="orange" stroke-width="2" points="684.244,-106.406 681.244,-110.406 660.244,-110.406 657.244,-106.406 627.244,-106.406 627.244,-70.4055 684.244,-70.4055 684.244,-106.406"/>
<text text-anchor="middle" x="655.744" y="-84.9055" font-family="Times New Roman,serif" font-size="15.00">feature</text>
</g>
<!-- C_3_F -->
<g id="node14" class="node"><title>C_3_F</title>
<ellipse fill="none" stroke="blue" stroke-width="2" cx="746.65" cy="-88.4055" rx="26.3114" ry="26.3114"/>
<text text-anchor="middle" x="746.65" y="-84.9055" font-family="Times New Roman,serif" font-size="15.00">C 3</text>
</g>
<!-- feature&#45;&gt;C_3_F -->
<g id="edge11" class="edge"><title>feature&#45;&gt;C_3_F</title>
<path fill="none" stroke="gray" stroke-dasharray="5,2" d="M684.387,-88.4055C695.805,-88.4055 708.958,-88.4055 720.143,-88.4055"/>
</g>
<!-- C_2_M -->
<g id="node9" class="node"><title>C_2_M</title>
<ellipse fill="none" stroke="blue" stroke-width="2" cx="386.622" cy="-150.406" rx="26.3114" ry="26.3114"/>
<text text-anchor="middle" x="386.622" y="-146.906" font-family="Times New Roman,serif" font-size="15.00">C 2</text>
</g>
<!-- C_1&#45;&gt;C_2_M -->
<g id="edge2" class="edge"><title>C_1&#45;&gt;C_2_M</title>
<path fill="none" stroke="gray" stroke-dasharray="5,2" d="M145.639,-150.406C196.937,-150.406 308.878,-150.406 360.091,-150.406"/>
</g>
<!-- C_1&#45;&gt;C_1_D -->
<g id="edge13" class="edge"><title>C_1&#45;&gt;C_1_D</title>
<path fill="none" stroke="green" d="M135.026,-129.089C149.222,-108.95 170.645,-78.5563 186.504,-56.0573"/>
<polygon fill="green" stroke="green" points="189.383,-58.0487 192.284,-47.8587 183.661,-54.0157 189.383,-58.0487"/>
</g>
<!-- C_2 -->
<g id="node6" class="node"><title>C_2</title>
<ellipse fill="none" stroke="black" cx="297.217" cy="-26.4055" rx="26.3114" ry="26.3114"/>
<text text-anchor="middle" x="297.217" y="-22.9055" font-family="Times New Roman,serif" font-size="15.00">C 2</text>
</g>
<!-- C_2&#45;&gt;C_2_M -->
<g id="edge14" class="edge"><title>C_2&#45;&gt;C_2_M</title>
<path fill="none" stroke="green" d="M313.242,-47.7219C327.438,-67.8614 348.862,-98.2547 364.721,-120.754"/>
<polygon fill="green" stroke="green" points="361.878,-122.795 370.5,-128.952 367.599,-118.762 361.878,-122.795"/>
</g>
<!-- C_3_D -->
<g id="node12" class="node"><title>C_3_D</title>
<ellipse fill="none" stroke="blue" stroke-width="2" cx="655.744" cy="-26.4055" rx="26.3114" ry="26.3114"/>
<text text-anchor="middle" x="655.744" y="-22.9055" font-family="Times New Roman,serif" font-size="15.00">C 3</text>
</g>
<!-- C_2&#45;&gt;C_3_D -->
<g id="edge7" class="edge"><title>C_2&#45;&gt;C_3_D</title>
<path fill="none" stroke="gray" stroke-dasharray="5,2" d="M323.872,-26.4055C390.246,-26.4055 562.354,-26.4055 628.914,-26.4055"/>
</g>
<!-- C_3 -->
<g id="node7" class="node"><title>C_3</title>
<ellipse fill="none" stroke="black" cx="564.839" cy="-88.4055" rx="26.3114" ry="26.3114"/>
<text text-anchor="middle" x="564.839" y="-84.9055" font-family="Times New Roman,serif" font-size="15.00">C 3</text>
</g>
<!-- C_3_M -->
<g id="node10" class="node"><title>C_3_M</title>
<ellipse fill="none" stroke="blue" stroke-width="2" cx="655.744" cy="-150.406" rx="26.3114" ry="26.3114"/>
<text text-anchor="middle" x="655.744" y="-146.906" font-family="Times New Roman,serif" font-size="15.00">C 3</text>
</g>
<!-- C_3&#45;&gt;C_3_M -->
<g id="edge16" class="edge"><title>C_3&#45;&gt;C_3_M</title>
<path fill="none" stroke="green" d="M586.908,-103.099C598.34,-111.071 612.655,-121.054 625.186,-129.792"/>
<polygon fill="green" stroke="green" points="623.313,-132.754 633.518,-135.603 627.318,-127.012 623.313,-132.754"/>
</g>
<!-- C_3&#45;&gt;C_3_D -->
<g id="edge17" class="edge"><title>C_3&#45;&gt;C_3_D</title>
<path fill="none" stroke="green" d="M586.908,-73.7124C598.34,-65.7404 612.655,-55.7571 625.186,-47.0187"/>
<polygon fill="green" stroke="green" points="627.318,-49.7991 633.518,-41.2081 623.313,-44.0574 627.318,-49.7991"/>
</g>
<!-- C_4 -->
<g id="node8" class="node"><title>C_4</title>
<ellipse fill="none" stroke="black" cx="835.461" cy="-88.4055" rx="26.3114" ry="26.3114"/>
<text text-anchor="middle" x="835.461" y="-84.9055" font-family="Times New Roman,serif" font-size="15.00">C 4</text>
</g>
<!-- C_4_D -->
<g id="node15" class="node"><title>C_4_D</title>
<ellipse fill="none" stroke="blue" stroke-width="2" cx="924.272" cy="-26.4055" rx="26.3114" ry="26.3114"/>
<text text-anchor="middle" x="924.272" y="-22.9055" font-family="Times New Roman,serif" font-size="15.00">C 4</text>
</g>
<!-- C_4&#45;&gt;C_4_D -->
<g id="edge19" class="edge"><title>C_4&#45;&gt;C_4_D</title>
<path fill="none" stroke="green" d="M857.475,-73.3971C868.458,-65.553 882.075,-55.8279 894.067,-47.2634"/>
<polygon fill="green" stroke="green" points="896.347,-49.9359 902.451,-41.2758 892.279,-44.2395 896.347,-49.9359"/>
</g>
<!-- C_4_M -->
<g id="node16" class="node"><title>C_4_M</title>
<ellipse fill="none" stroke="blue" stroke-width="2" cx="924.272" cy="-150.406" rx="26.3114" ry="26.3114"/>
<text text-anchor="middle" x="924.272" y="-146.906" font-family="Times New Roman,serif" font-size="15.00">C 4</text>
</g>
<!-- C_4&#45;&gt;C_4_M -->
<g id="edge20" class="edge"><title>C_4&#45;&gt;C_4_M</title>
<path fill="none" stroke="green" d="M857.475,-103.414C868.458,-111.258 882.075,-120.983 894.067,-129.548"/>
<polygon fill="green" stroke="green" points="892.279,-132.572 902.451,-135.535 896.347,-126.875 892.279,-132.572"/>
</g>
<!-- C_2_M&#45;&gt;C_3_M -->
<g id="edge3" class="edge"><title>C_2_M&#45;&gt;C_3_M</title>
<path fill="none" stroke="gray" stroke-dasharray="5,2" d="M413.41,-150.406C464.996,-150.406 577.564,-150.406 629.064,-150.406"/>
</g>
<!-- C_2_M&#45;&gt;C_2_H -->
<g id="edge15" class="edge"><title>C_2_M&#45;&gt;C_2_H</title>
<path fill="none" stroke="green" d="M408.781,-135.397C419.839,-127.553 433.549,-117.828 445.623,-109.263"/>
<polygon fill="green" stroke="green" points="447.933,-111.916 454.064,-103.276 443.883,-106.207 447.933,-111.916"/>
</g>
<!-- C_3_M&#45;&gt;C_4_M -->
<g id="edge4" class="edge"><title>C_3_M&#45;&gt;C_4_M</title>
<path fill="none" stroke="gray" stroke-dasharray="5,2" d="M682.473,-150.406C733.945,-150.406 846.265,-150.406 897.651,-150.406"/>
</g>
<!-- C_1_D&#45;&gt;C_2 -->
<g id="edge6" class="edge"><title>C_1_D&#45;&gt;C_2</title>
<path fill="none" stroke="green" d="M234.982,-26.4055C242.947,-26.4055 251.881,-26.4055 260.411,-26.4055"/>
<polygon fill="green" stroke="green" points="260.523,-29.9056 270.523,-26.4055 260.523,-22.9056 260.523,-29.9056"/>
</g>
<!-- C_3_D&#45;&gt;C_3_F -->
<g id="edge18" class="edge"><title>C_3_D&#45;&gt;C_3_F</title>
<path fill="none" stroke="green" d="M677.814,-41.0987C689.245,-49.0707 703.561,-59.054 716.091,-67.7923"/>
<polygon fill="green" stroke="green" points="714.219,-70.7537 724.424,-73.603 718.223,-65.012 714.219,-70.7537"/>
</g>
<!-- C_3_D&#45;&gt;C_4_D -->
<g id="edge8" class="edge"><title>C_3_D&#45;&gt;C_4_D</title>
<path fill="none" stroke="gray" stroke-dasharray="5,2" d="M682.473,-26.4055C733.945,-26.4055 846.265,-26.4055 897.651,-26.4055"/>
</g>
<!-- C_2_H&#45;&gt;C_3 -->
<g id="edge10" class="edge"><title>C_2_H&#45;&gt;C_3</title>
<path fill="none" stroke="green" d="M502.604,-88.4055C510.569,-88.4055 519.503,-88.4055 528.033,-88.4055"/>
<polygon fill="green" stroke="green" points="528.145,-91.9056 538.145,-88.4055 528.145,-84.9056 528.145,-91.9056"/>
</g>
<!-- C_3_F&#45;&gt;C_4 -->
<g id="edge12" class="edge"><title>C_3_F&#45;&gt;C_4</title>
<path fill="none" stroke="green" d="M773.226,-88.4055C781.191,-88.4055 790.125,-88.4055 798.655,-88.4055"/>
<polygon fill="green" stroke="green" points="798.767,-91.9056 808.767,-88.4055 798.767,-84.9056 798.767,-91.9056"/>
</g>
</g>
</svg>
